<?xml version="1.0" encoding="UTF-8" standalone="no"?>
<!DOCTYPE svg PUBLIC "-//W3C//DTD SVG 1.1//EN"
 "http://www.w3.org/Graphics/SVG/1.1/DTD/svg11.dtd">
<!-- Generated by graphviz version 2.40.1 (20161225.0304)
 -->
<!-- Title: dependencies Pages: 1 -->
<svg width="1129pt" height="284pt"
 viewBox="0.00 0.00 1129.00 284.00" xmlns="http://www.w3.org/2000/svg" xmlns:xlink="http://www.w3.org/1999/xlink">
<g id="graph0" class="graph" transform="scale(1 1) rotate(0) translate(4 280)">
<title>dependencies</title>
<polygon fill="#ffffff" stroke="transparent" points="-4,4 -4,-280 1125,-280 1125,4 -4,4"/>
<text text-anchor="start" x="539.5091" y="-42.4" font-family="sans-serif" font-weight="bold" font-size="14.00" fill="#000000">Legend</text>
<polygon fill="#ffffb3" stroke="transparent" points="326.5,-10 326.5,-30 346.5,-30 346.5,-10 326.5,-10"/>
<text text-anchor="start" x="350.129" y="-15.4" font-family="sans-serif" font-size="14.00" fill="#000000"> &#160;Declarations</text>
<polygon fill="#8dd3c7" stroke="transparent" points="439.5,-10 439.5,-30 459.5,-30 459.5,-10 439.5,-10"/>
<text text-anchor="start" x="463.2251" y="-15.4" font-family="sans-serif" font-size="14.00" fill="#000000"> &#160;Module</text>
<polygon fill="#80b1d3" stroke="transparent" points="525.5,-10 525.5,-30 545.5,-30 545.5,-10 525.5,-10"/>
<text text-anchor="start" x="549.2812" y="-15.4" font-family="sans-serif" font-size="14.00" fill="#000000"> &#160;Bootstrap</text>
<polygon fill="#fdb462" stroke="transparent" points="622.5,-10 622.5,-30 642.5,-30 642.5,-10 622.5,-10"/>
<text text-anchor="start" x="646.1732" y="-15.4" font-family="sans-serif" font-size="14.00" fill="#000000"> &#160;Providers</text>
<polygon fill="#fb8072" stroke="transparent" points="718.5,-10 718.5,-30 738.5,-30 738.5,-10 718.5,-10"/>
<text text-anchor="start" x="742.2258" y="-15.4" font-family="sans-serif" font-size="14.00" fill="#000000"> &#160;Exports</text>
<g id="clust1" class="cluster">
<title>cluster_AppModule</title>
<polygon fill="none" stroke="#000000" stroke-dasharray="1,5" points="8,-70 8,-268 1113,-268 1113,-70 8,-70"/>
</g>
<g id="clust2" class="cluster">
<title>cluster_AppModule_declarations</title>
<polygon fill="none" stroke="#000000" points="16,-78 16,-130 1105,-130 1105,-78 16,-78"/>
</g>
<g id="clust13" class="cluster">
<title>cluster_AppModule_bootstrap</title>
<polygon fill="none" stroke="#000000" points="501,-208 501,-260 625,-260 625,-208 501,-208"/>
</g>
<!-- AppComponent -->
<g id="node1" class="node">
<title>AppComponent</title>
<polygon fill="#ffffb3" stroke="#000000" points="1096.9399,-122 991.0601,-122 991.0601,-86 1096.9399,-86 1096.9399,-122"/>
<text text-anchor="middle" x="1044" y="-99.8" font-family="Times,serif" font-size="14.00" fill="#000000">AppComponent</text>
</g>
<!-- AppModule -->
<g id="node9" class="node">
<title>AppModule</title>
<polygon fill="#8dd3c7" stroke="#000000" points="604.6571,-187 601.6571,-191 580.6571,-191 577.6571,-187 521.3429,-187 521.3429,-151 604.6571,-151 604.6571,-187"/>
<text text-anchor="middle" x="563" y="-164.8" font-family="Times,serif" font-size="14.00" fill="#000000">AppModule</text>
</g>
<!-- AppComponent&#45;&gt;AppModule -->
<g id="edge1" class="edge">
<title>AppComponent&#45;&gt;AppModule</title>
<path fill="none" stroke="#000000" d="M1044,-122.2921C1044,-144.2057 1044,-178 1044,-178 1044,-178 614.8442,-178 614.8442,-178"/>
<polygon fill="#000000" stroke="#000000" points="614.8442,-174.5001 604.8442,-178 614.8441,-181.5001 614.8442,-174.5001"/>
</g>
<!-- TestComponent -->
<g id="node2" class="node">
<title>TestComponent</title>
<polygon fill="#ffffb3" stroke="#000000" points="973.9357,-122 868.0643,-122 868.0643,-86 973.9357,-86 973.9357,-122"/>
<text text-anchor="middle" x="921" y="-99.8" font-family="Times,serif" font-size="14.00" fill="#000000">TestComponent</text>
</g>
<!-- TestComponent&#45;&gt;AppModule -->
<g id="edge2" class="edge">
<title>TestComponent&#45;&gt;AppModule</title>
<path fill="none" stroke="#000000" d="M921,-122.1061C921,-141.3391 921,-169 921,-169 921,-169 614.7678,-169 614.7678,-169"/>
<polygon fill="#000000" stroke="#000000" points="614.7678,-165.5001 604.7678,-169 614.7678,-172.5001 614.7678,-165.5001"/>
</g>
<!-- Sample1Component -->
<g id="node3" class="node">
<title>Sample1Component</title>
<polygon fill="#ffffb3" stroke="#000000" points="850.3258,-122 719.6742,-122 719.6742,-86 850.3258,-86 850.3258,-122"/>
<text text-anchor="middle" x="785" y="-99.8" font-family="Times,serif" font-size="14.00" fill="#000000">Sample1Component</text>
</g>
<!-- Sample1Component&#45;&gt;AppModule -->
<g id="edge3" class="edge">
<title>Sample1Component&#45;&gt;AppModule</title>
<path fill="none" stroke="#000000" d="M785,-122.027C785,-138.3976 785,-160 785,-160 785,-160 614.7565,-160 614.7565,-160"/>
<polygon fill="#000000" stroke="#000000" points="614.7565,-156.5001 604.7565,-160 614.7565,-163.5001 614.7565,-156.5001"/>
</g>
<!-- Sample2Component -->
<g id="node4" class="node">
<title>Sample2Component</title>
<polygon fill="#ffffb3" stroke="#000000" points="702.3258,-122 571.6742,-122 571.6742,-86 702.3258,-86 702.3258,-122"/>
<text text-anchor="middle" x="637" y="-99.8" font-family="Times,serif" font-size="14.00" fill="#000000">Sample2Component</text>
</g>
<!-- Sample2Component&#45;&gt;AppModule -->
<g id="edge4" class="edge">
<title>Sample2Component&#45;&gt;AppModule</title>
<path fill="none" stroke="#000000" d="M588.3328,-122.1061C588.3328,-122.1061 588.3328,-140.991 588.3328,-140.991"/>
<polygon fill="#000000" stroke="#000000" points="584.8328,-140.9909 588.3328,-150.991 591.8328,-140.991 584.8328,-140.9909"/>
</g>
<!-- Sample3Component -->
<g id="node5" class="node">
<title>Sample3Component</title>
<polygon fill="#ffffb3" stroke="#000000" points="554.3258,-122 423.6742,-122 423.6742,-86 554.3258,-86 554.3258,-122"/>
<text text-anchor="middle" x="489" y="-99.8" font-family="Times,serif" font-size="14.00" fill="#000000">Sample3Component</text>
</g>
<!-- Sample3Component&#45;&gt;AppModule -->
<g id="edge5" class="edge">
<title>Sample3Component&#45;&gt;AppModule</title>
<path fill="none" stroke="#000000" d="M537.6673,-122.1061C537.6673,-122.1061 537.6673,-140.991 537.6673,-140.991"/>
<polygon fill="#000000" stroke="#000000" points="534.1673,-140.9909 537.6673,-150.991 541.1673,-140.991 534.1673,-140.9909"/>
</g>
<!-- ChildComponent -->
<g id="node6" class="node">
<title>ChildComponent</title>
<polygon fill="#ffffb3" stroke="#000000" points="406.4511,-122 293.5489,-122 293.5489,-86 406.4511,-86 406.4511,-122"/>
<text text-anchor="middle" x="350" y="-99.8" font-family="Times,serif" font-size="14.00" fill="#000000">ChildComponent</text>
</g>
<!-- ChildComponent&#45;&gt;AppModule -->
<g id="edge6" class="edge">
<title>ChildComponent&#45;&gt;AppModule</title>
<path fill="none" stroke="#000000" d="M350,-122.027C350,-138.3976 350,-160 350,-160 350,-160 511.1722,-160 511.1722,-160"/>
<polygon fill="#000000" stroke="#000000" points="511.1722,-163.5001 521.1722,-160 511.1722,-156.5001 511.1722,-163.5001"/>
</g>
<!-- ParentComponent -->
<g id="node7" class="node">
<title>ParentComponent</title>
<polygon fill="#ffffb3" stroke="#000000" points="275.5954,-122 158.4046,-122 158.4046,-86 275.5954,-86 275.5954,-122"/>
<text text-anchor="middle" x="217" y="-99.8" font-family="Times,serif" font-size="14.00" fill="#000000">ParentComponent</text>
</g>
<!-- ParentComponent&#45;&gt;AppModule -->
<g id="edge7" class="edge">
<title>ParentComponent&#45;&gt;AppModule</title>
<path fill="none" stroke="#000000" d="M217,-122.1061C217,-141.3391 217,-169 217,-169 217,-169 511.2643,-169 511.2643,-169"/>
<polygon fill="#000000" stroke="#000000" points="511.2644,-172.5001 521.2643,-169 511.2643,-165.5001 511.2644,-172.5001"/>
</g>
<!-- GrandComponent -->
<g id="node8" class="node">
<title>GrandComponent</title>
<polygon fill="#ffffb3" stroke="#000000" points="140.3146,-122 23.6854,-122 23.6854,-86 140.3146,-86 140.3146,-122"/>
<text text-anchor="middle" x="82" y="-99.8" font-family="Times,serif" font-size="14.00" fill="#000000">GrandComponent</text>
</g>
<!-- GrandComponent&#45;&gt;AppModule -->
<g id="edge8" class="edge">
<title>GrandComponent&#45;&gt;AppModule</title>
<path fill="none" stroke="#000000" d="M82,-122.2921C82,-144.2057 82,-178 82,-178 82,-178 511.1558,-178 511.1558,-178"/>
<polygon fill="#000000" stroke="#000000" points="511.1559,-181.5001 521.1558,-178 511.1558,-174.5001 511.1559,-181.5001"/>
</g>
<!-- AppComponent  -->
<g id="node10" class="node">
<title>AppComponent </title>
<polygon fill="#80b1d3" stroke="#000000" points="617.439,-252 508.561,-252 508.561,-216 617.439,-216 617.439,-252"/>
<text text-anchor="middle" x="563" y="-229.8" font-family="Times,serif" font-size="14.00" fill="#000000">AppComponent </text>
</g>
<!-- AppModule&#45;&gt;AppComponent  -->
<g id="edge9" class="edge">
<title>AppModule&#45;&gt;AppComponent </title>
<path fill="none" stroke="#000000" stroke-dasharray="1,5" d="M563,-187.1061C563,-187.1061 563,-205.991 563,-205.991"/>
<polygon fill="#000000" stroke="#000000" points="559.5001,-205.9909 563,-215.991 566.5001,-205.991 559.5001,-205.9909"/>
</g>
</g>
</svg>
